<?xml version="1.0" encoding="utf-8" standalone="no"?>
<svg xmlns="http://www.w3.org/2000/svg" version="1.1" width="96px" height="124px">
<path class="blocklyPath" stroke="none" fill="#5ba55b" d=" m 0,0  m 0,8 a 8 8 0 0,1 8,-8  h 7  l 6,4  3,0  6,-4  h 74.47718715667725  v 5  V 5  V 31  V 35  H 79.31812477111816  l -6,4  -3,0  -6,-4  h -7 a 8 8 0 0,0 -8,8  v 8 a 8 8 0 0,0 8,8  H 104.47718715667725  V 59  V 69  h -74.97718715667725  l -6,4  -3,0  -6,-4  h -6.5 a 8 8 0 0,1 -8,-8 z
 M 55.318124771118164,5  v 5 a 4 4 90 1 0 0,15 v 6  h 14.5  v -26 z"></path>
 </svg>
